<svg width="421" height="222" viewBox="0 0 421 222" fill="none" xmlns="http://www.w3.org/2000/svg">
<path d="M194.233 35.7144C195.833 34.8035 197.68 34.4374 199.499 34.6668L199.863 34.7217L400.299 68.8529C408.223 70.2023 410.092 80.8018 403.107 84.7801L226.433 185.406C224.727 186.378 222.738 186.728 220.803 186.399L20.3662 152.268L19.9988 152.198C12.5065 150.614 10.7375 140.582 17.2364 136.531L17.5578 136.34L194.233 35.7144ZM199.504 36.8685C198.06 36.6228 196.577 36.8842 195.304 37.609L18.6288 138.236C13.4171 141.205 14.8115 149.113 20.7243 150.12L221.161 184.252C222.605 184.498 224.088 184.236 225.361 183.512L402.037 82.8843C407.249 79.9158 405.854 72.0074 399.942 71.0003L199.504 36.8685ZM218.731 158.154C220.599 157.824 222.247 158.012 223.666 158.727C225.074 159.411 226.217 160.419 227.094 161.748C227.97 163.074 228.547 164.526 228.825 166.103C229.103 167.679 229.06 169.255 228.696 170.829C228.325 172.378 227.599 173.731 226.515 174.882L226.513 174.884C225.419 176.012 223.934 176.738 222.066 177.068C220.224 177.393 218.577 177.204 217.132 176.494C215.807 175.827 214.717 174.887 213.862 173.677L213.694 173.431C212.814 172.077 212.235 170.611 211.957 169.034C211.679 167.458 211.726 165.91 212.1 164.392C212.47 162.843 213.2 161.504 214.289 160.381C215.379 159.223 216.863 158.483 218.731 158.154ZM218.943 159.355C217.35 159.636 216.086 160.271 215.146 161.256C214.227 162.242 213.612 163.401 213.301 164.735C212.989 166.073 212.956 167.433 213.199 168.815C213.443 170.197 213.942 171.477 214.698 172.655L214.846 172.872C215.603 173.939 216.547 174.77 217.677 175.371L217.903 175.48C219.045 175.999 220.36 176.13 221.854 175.867C223.447 175.586 224.696 174.952 225.61 173.972C226.554 172.982 227.18 171.806 227.487 170.445C227.794 169.079 227.826 167.704 227.583 166.322C227.339 164.939 226.841 163.674 226.091 162.524L226.09 162.523C225.336 161.348 224.36 160.456 223.16 159.844C221.967 159.235 220.563 159.069 218.943 159.355ZM219.409 161.531C220.605 161.32 221.533 161.506 222.166 162.12C222.775 162.689 223.147 163.322 223.269 164.017C223.406 164.792 223.291 165.512 222.921 166.172C222.633 166.692 222.205 167.04 221.646 167.223C221.983 167.229 222.274 167.325 222.512 167.517C222.845 167.787 223.057 168.23 223.163 168.828L223.502 170.755C223.531 170.915 223.578 171.101 223.641 171.313C223.676 171.384 223.722 171.429 223.777 171.453C223.836 171.479 223.917 171.487 224.025 171.468C224.156 171.445 224.236 171.381 224.28 171.275C224.328 171.161 224.338 170.988 224.295 170.745L223.938 168.719L224.858 168.557L225.245 170.75C225.312 171.13 225.283 171.54 225.16 171.976L225.159 171.979C225.019 172.426 224.603 172.693 223.971 172.804C223.441 172.898 223.003 172.809 222.678 172.518L222.675 172.516C222.358 172.207 222.157 171.802 222.07 171.31L221.708 169.257C221.601 168.65 221.413 168.29 221.17 168.133L221.164 168.13C220.946 167.97 220.546 167.924 219.932 168.033L219.347 168.136L220.082 172.304L221.392 172.235L221.481 172.23L221.624 173.044L217.401 173.789L217.258 172.975L217.343 172.95L218.557 172.573L216.868 162.989L215.597 163.052L215.509 163.057L215.366 162.243L219.409 161.531ZM219.157 167.059L219.985 166.913C220.699 166.787 221.201 166.556 221.507 166.233C221.801 165.921 221.902 165.411 221.771 164.67L221.675 164.126C221.555 163.445 221.288 162.983 220.889 162.719C220.487 162.455 219.931 162.375 219.207 162.503L218.379 162.649L219.157 167.059ZM178.695 133.802C178.98 135.421 178.915 136.884 178.498 138.193C178.082 139.501 177.357 140.583 176.322 141.437C175.307 142.287 174.005 142.854 172.415 143.134C170.366 143.495 168.568 143.205 167.022 142.264C165.472 141.302 164.335 139.747 163.611 137.599L167.2 136.122C167.605 137.437 168.194 138.396 168.969 138.996C169.76 139.571 170.71 139.761 171.819 139.565C173.011 139.355 173.873 138.803 174.405 137.907C174.954 136.987 175.093 135.759 174.823 134.225L172.377 120.353L176.204 119.678L178.695 133.802ZM186.705 122.67C188.232 122.401 189.644 122.521 190.941 123.029C192.238 123.537 193.326 124.385 194.204 125.574C195.103 126.759 195.708 128.234 196.02 130C196.327 131.744 196.263 133.338 195.827 134.78C195.408 136.197 194.677 137.366 193.631 138.287C192.586 139.208 191.3 139.803 189.773 140.072C188.247 140.342 186.835 140.223 185.537 139.715C184.24 139.207 183.143 138.36 182.244 137.175C181.362 135.965 180.766 134.488 180.459 132.743C180.147 130.978 180.202 129.386 180.62 127.969C181.06 126.548 181.802 125.377 182.847 124.456C183.892 123.535 185.178 122.939 186.705 122.67ZM201.661 130.37C201.902 131.736 202.42 132.718 203.215 133.314C204.007 133.89 204.894 134.091 205.877 133.918C206.839 133.748 207.594 133.257 208.141 132.446C208.65 131.665 208.814 130.65 208.634 129.401L208.594 129.148L206.887 119.469L210.526 118.827L213.473 135.537L209.834 136.178L209.371 133.556C209.047 134.523 208.543 135.329 207.857 135.973C207.082 136.717 206.12 137.19 204.97 137.393C203.317 137.684 201.856 137.346 200.586 136.378C199.333 135.385 198.527 133.87 198.167 131.831L196.316 121.333L199.954 120.692L201.661 130.37ZM246.408 112.143C248.499 111.774 250.229 112.044 251.597 112.951C252.964 113.859 253.82 115.29 254.164 117.244L255.41 124.306C255.628 125.546 256.005 126.759 256.537 127.943L252.835 128.596C252.613 128.072 252.41 127.533 252.226 126.98C252.116 126.605 252.023 126.231 251.943 125.861C251.546 126.93 250.946 127.818 250.136 128.519C249.257 129.281 248.222 129.766 247.03 129.976C245.524 130.242 244.257 130.032 243.231 129.346C242.225 128.657 241.606 127.65 241.372 126.326C241.15 125.065 241.375 123.898 242.048 122.826C242.743 121.75 243.941 120.899 245.642 120.274L250.635 118.504L250.593 118.264C250.367 116.982 249.881 116.125 249.136 115.693C248.412 115.257 247.612 115.117 246.733 115.271C245.918 115.415 245.257 115.77 244.753 116.335C244.27 116.897 243.987 117.673 243.902 118.663L240.279 118.294C240.433 116.599 241.055 115.233 242.144 114.196C243.25 113.134 244.672 112.449 246.408 112.143ZM222.587 120.602L221.176 120.851C220.026 121.054 219.159 121.52 218.576 122.251C218.014 122.953 217.856 124.012 218.101 125.428L219.69 134.44L216.051 135.082L213.105 118.373L216.744 117.731L217.336 121.09C217.608 119.893 218.079 118.904 218.754 118.124C219.527 117.251 220.562 116.7 221.859 116.471L222.587 120.602ZM231.628 114.749C232.757 114.55 233.797 114.638 234.747 115.012C235.698 115.386 236.501 116.024 237.156 116.927C237.811 117.83 238.257 118.955 238.494 120.3L240.345 130.798L236.706 131.44L234.999 121.761C234.759 120.395 234.232 119.425 233.42 118.853C232.625 118.257 231.735 118.046 230.752 118.219C229.77 118.392 228.995 118.897 228.431 119.733C227.884 120.545 227.731 121.634 227.972 123L229.679 132.679L226.04 133.321L223.093 116.612L226.732 115.97L227.209 118.673C227.53 117.662 228.04 116.826 228.741 116.168C229.536 115.421 230.499 114.948 231.628 114.749ZM262.278 126.931L258.639 127.572L254.664 105.031L258.304 104.389L262.278 126.931ZM247.353 122.638C246.383 123.004 245.724 123.424 245.376 123.897C245.028 124.37 244.9 124.87 244.992 125.395C245.07 125.837 245.321 126.215 245.743 126.53C246.161 126.825 246.747 126.906 247.5 126.773C248.211 126.648 248.871 126.358 249.481 125.904C250.112 125.446 250.592 124.863 250.92 124.155C251.222 123.514 251.33 122.807 251.246 122.035L251.199 121.7L251.103 121.155L247.353 122.638ZM187.283 125.949C186.07 126.163 185.175 126.775 184.599 127.787C184.022 128.799 183.898 130.23 184.224 132.08C184.55 133.929 185.156 135.23 186.044 135.984C186.931 136.738 187.982 137.008 189.195 136.794C190.408 136.58 191.303 135.967 191.88 134.955C192.456 133.943 192.58 132.513 192.254 130.664C191.928 128.814 191.322 127.512 190.434 126.758C189.547 126.005 188.496 125.736 187.283 125.949ZM38.9616 136.563L41.211 136.166L41.3676 137.054L39.1008 137.453L40.0162 142.645C40.091 143.069 40.2296 143.368 40.4317 143.539C40.6317 143.7 40.8709 143.755 41.1484 143.707C41.3373 143.673 41.5086 143.603 41.6615 143.495C41.8254 143.386 41.9996 143.239 42.1851 143.057L42.662 143.422C42.3108 144.094 41.7073 144.505 40.8518 144.656C40.2743 144.758 39.7856 144.683 39.3862 144.432C38.9867 144.18 38.73 143.73 38.6158 143.082L38.5064 142.462C38.4801 142.248 38.4381 141.979 38.3811 141.656L37.6842 137.703L36.3012 137.947L36.1711 137.209L37.6217 136.764L37.6597 134.443L38.6599 134.267L38.9616 136.563ZM45.1253 135.251C45.7029 135.149 46.248 135.186 46.7599 135.36C47.2717 135.535 47.7089 135.837 48.0713 136.268C48.4318 136.688 48.6728 137.239 48.7929 137.92C48.8264 138.11 48.8464 138.29 48.8537 138.462C48.8591 138.622 48.8546 138.761 48.8409 138.878L43.5245 139.816C43.7278 140.839 44.1213 141.576 44.7044 142.025C45.2878 142.475 45.9803 142.629 46.7802 142.488C47.3134 142.394 47.739 142.21 48.0571 141.935C48.3731 141.649 48.6505 141.307 48.8894 140.908L49.3456 141.155C49.1388 141.802 48.8002 142.351 48.3299 142.802C47.8577 143.242 47.2439 143.529 46.4885 143.662C45.3663 143.86 44.4026 143.656 43.5969 143.05C42.7892 142.432 42.2723 141.482 42.0459 140.198C41.8943 139.338 41.9343 138.559 42.1665 137.862C42.4098 137.163 42.7895 136.584 43.3041 136.125C43.8298 135.664 44.4366 135.372 45.1253 135.251ZM52.7546 133.905C53.2544 133.817 53.7323 133.831 54.1878 133.946C54.6435 134.062 55.04 134.263 55.3769 134.549C55.7116 134.824 55.9486 135.161 56.0882 135.563C56.0852 136.001 55.8672 136.258 55.4339 136.335C55.1565 136.383 54.9327 136.348 54.7628 136.229C54.6019 136.096 54.4725 135.917 54.3756 135.692L53.8807 134.64C53.7154 134.612 53.554 134.605 53.3965 134.621C53.2481 134.624 53.1013 134.639 52.9568 134.664C52.2461 134.79 51.7069 135.173 51.3388 135.813C50.9817 136.452 50.8972 137.307 51.0862 138.379C51.2713 139.429 51.6633 140.188 52.2615 140.658C52.8599 141.128 53.5482 141.295 54.3259 141.158C54.8036 141.074 55.2239 140.89 55.5864 140.607C55.9468 140.314 56.2184 139.938 56.4011 139.48L56.8558 139.624C56.7446 140.357 56.4605 140.954 56.0034 141.414C55.5462 141.875 54.923 142.175 54.1342 142.314C52.9898 142.516 52.0127 142.302 51.2031 141.674C50.3936 141.045 49.8755 140.089 49.6491 138.805C49.4936 137.923 49.5389 137.138 49.7842 136.45C50.0386 135.749 50.4305 135.179 50.9603 134.741C51.49 134.302 52.088 134.023 52.7546 133.905ZM361.423 75.2834L361.776 77.6735L363.373 86.7339L364.758 86.697L364.864 87.3L362.311 87.9228L361.99 86.7873C361.768 87.2179 361.487 87.5726 361.147 87.8514C360.817 88.1281 360.392 88.3127 359.87 88.4047C359.192 88.5242 358.567 88.4558 357.995 88.1998C357.423 87.9438 356.938 87.5348 356.541 86.9717C356.153 86.3954 355.887 85.6993 355.744 84.8842C355.592 84.0247 355.616 83.2494 355.814 82.5582C356.013 81.867 356.348 81.2955 356.818 80.8442C357.289 80.3929 357.863 80.1067 358.54 79.9872C358.929 79.9187 359.315 79.9314 359.698 80.025C360.092 80.1166 360.498 80.3387 360.915 80.691L360.248 76.9066L358.802 76.989L358.699 76.4024L361.166 75.1898L361.423 75.2834ZM366.917 78.5102C367.795 78.3555 368.484 78.4647 368.985 78.8368C369.483 79.1977 369.827 79.9083 370.014 80.9687L370.643 84.5367C370.706 84.8939 370.807 85.141 370.945 85.2777C371.082 85.4033 371.24 85.45 371.417 85.4186C371.562 85.3932 371.678 85.3385 371.766 85.254C371.854 85.1694 371.933 85.063 372.003 84.9356L372.4 85.2453C372.257 85.6043 372.076 85.8724 371.855 86.0495C371.643 86.2134 371.393 86.3212 371.105 86.3722C370.705 86.4427 370.35 86.384 370.042 86.1966C369.734 86.0091 369.512 85.7261 369.377 85.3471C369 85.874 368.659 86.2797 368.354 86.5637C368.049 86.8475 367.652 87.0325 367.164 87.1187C366.553 87.2264 365.994 87.1464 365.488 86.8786C364.992 86.5977 364.683 86.1108 364.561 85.4187C364.504 85.095 364.523 84.7811 364.618 84.4766C364.725 84.1701 364.954 83.8477 365.306 83.5094C365.659 83.1709 366.184 82.8018 366.881 82.4027C367.121 82.2683 367.399 82.1214 367.715 81.9621C368.03 81.803 368.348 81.6545 368.667 81.5176L368.593 81.0993C368.449 80.2842 368.232 79.7634 367.94 79.5386C367.648 79.3138 367.224 79.2503 366.669 79.3482C366.547 79.3697 366.409 79.4004 366.256 79.4389C366.113 79.4756 365.957 79.5318 365.788 79.6077L365.662 80.7524C365.601 81.3156 365.36 81.6347 364.937 81.7092C364.471 81.7913 364.17 81.6083 364.034 81.1605C364.077 80.4967 364.354 79.929 364.867 79.4587C365.389 78.9753 366.073 78.6591 366.917 78.5102ZM373.352 77.6006L375.601 77.204L375.758 78.0917L373.491 78.4914L374.407 83.6837C374.481 84.1078 374.62 84.4058 374.822 84.5773C375.022 84.7377 375.261 84.7933 375.539 84.7445C375.728 84.7112 375.899 84.6406 376.052 84.533C376.216 84.4235 376.391 84.2778 376.577 84.0954L377.052 84.4597C376.701 85.1317 376.098 85.5431 375.243 85.694C374.665 85.7959 374.176 85.7216 373.777 85.4697C373.377 85.2178 373.12 84.7677 373.006 84.1201L372.897 83.5007C372.871 83.2867 372.829 83.0176 372.771 82.6939L372.074 78.7412L370.691 78.985L370.562 78.2483L372.012 77.8022L372.05 75.481L373.05 75.3047L373.352 77.6006ZM379.149 76.3533C380.027 76.1986 380.717 76.3076 381.218 76.6797C381.717 77.0408 382.059 77.7515 382.246 78.8119L382.875 82.3799C382.938 82.7371 383.04 82.984 383.178 83.1207C383.315 83.2461 383.472 83.293 383.65 83.2618C383.794 83.2363 383.91 83.1816 383.998 83.0971C384.087 83.0125 384.166 82.9061 384.235 82.7788L384.633 83.0883C384.491 83.4473 384.308 83.7155 384.087 83.8926C383.875 84.0565 383.626 84.1644 383.337 84.2153C382.937 84.2858 382.583 84.2272 382.274 84.0397C381.967 83.8522 381.745 83.5691 381.609 83.1902C381.232 83.7169 380.892 84.1227 380.587 84.4067C380.282 84.6907 379.885 84.8756 379.396 84.9618C378.785 85.0695 378.227 84.9893 377.721 84.7216C377.225 84.4407 376.916 83.9541 376.793 83.2619C376.736 82.9382 376.755 82.6242 376.85 82.3197C376.957 82.0131 377.187 81.6908 377.54 81.3523C377.892 81.0139 378.417 80.6449 379.114 80.2458C379.353 80.1114 379.632 79.9645 379.947 79.8053C380.263 79.646 380.581 79.4975 380.9 79.3606L380.826 78.9422C380.683 78.1272 380.464 77.6066 380.172 77.3817C379.881 77.1571 379.457 77.0933 378.902 77.1912C378.78 77.2127 378.641 77.2435 378.488 77.2821C378.346 77.3187 378.19 77.3749 378.02 77.4509L377.895 78.5953C377.834 79.1585 377.593 79.4776 377.171 79.5521C376.704 79.6344 376.402 79.4515 376.266 79.0037C376.309 78.3398 376.587 77.772 377.1 77.3017C377.622 76.8184 378.305 76.5022 379.149 76.3533ZM57.8121 128.817L58.1651 131.207L58.7351 134.44C59.0654 133.909 59.4782 133.457 59.9732 133.082C60.4664 132.696 60.9798 132.455 61.5131 132.361C62.2352 132.234 62.8122 132.385 63.2433 132.816C63.6835 133.233 63.9996 133.989 64.1926 135.084L64.6976 137.948C64.7953 138.437 64.8875 138.893 64.9734 139.315L66.1813 139.344L66.2877 139.947L62.4215 140.629L62.3152 140.026L63.4933 139.593C63.4296 139.167 63.3541 138.708 63.2675 138.217C63.19 137.713 63.1176 137.271 63.0507 136.891L62.7995 135.467C62.6637 134.697 62.4649 134.185 62.2026 133.932C61.9403 133.679 61.5645 133.596 61.0756 133.682C60.6646 133.754 60.2903 133.906 59.9533 134.138C59.6162 134.371 59.2713 134.72 58.9181 135.185L59.5648 138.853C59.6626 139.342 59.7547 139.798 59.8406 140.22L61.0313 140.252L61.1376 140.855L57.2715 141.537L57.1651 140.934L58.374 140.479C58.3103 140.053 58.2348 139.594 58.1482 139.103C58.0708 138.598 57.9992 138.162 57.9343 137.794L56.6377 130.44L55.2416 130.514L55.1383 129.928L57.5558 128.725L57.8121 128.817ZM358.959 80.8981C358.548 80.9706 358.185 81.1558 357.871 81.4529C357.566 81.7369 357.351 82.143 357.227 82.6712C357.1 83.1884 357.104 83.8269 357.238 84.586C357.431 85.6802 357.79 86.4524 358.316 86.9008C358.85 87.336 359.452 87.4947 360.118 87.3773C360.485 87.3126 360.794 87.1826 361.046 86.9885C361.307 86.7813 361.563 86.4776 361.813 86.0768L360.995 81.4374C360.559 81.1691 360.179 80.9999 359.858 80.93C359.536 80.8601 359.236 80.8492 358.959 80.8981ZM368.776 82.137C368.501 82.266 368.234 82.4057 367.974 82.555C367.712 82.6933 367.498 82.8119 367.332 82.9103C366.888 83.1842 366.566 83.442 366.369 83.684C366.171 83.9261 366.05 84.1494 366.006 84.3529C365.972 84.5544 365.97 84.7388 366 84.9062C366.079 85.3528 366.262 85.649 366.551 85.7937C366.84 85.9385 367.174 85.9775 367.552 85.9109C367.718 85.8815 367.87 85.8314 368.006 85.7613C368.154 85.6892 368.323 85.5733 368.512 85.4133C368.699 85.2421 368.938 85.0043 369.228 84.7L368.776 82.137ZM381.009 79.9799C380.734 80.109 380.466 80.2487 380.206 80.3982C379.944 80.5365 379.73 80.6551 379.564 80.7534C379.12 81.0274 378.799 81.2851 378.601 81.5272C378.403 81.7693 378.282 81.9925 378.238 82.1961C378.205 82.3975 378.203 82.582 378.232 82.7494C378.311 83.196 378.495 83.4919 378.784 83.6367C379.073 83.7813 379.406 83.8205 379.784 83.754C379.95 83.7246 380.103 83.6744 380.239 83.6043C380.387 83.5322 380.556 83.4162 380.745 83.2563C380.933 83.0851 381.171 82.8472 381.461 82.5429L381.009 79.9799ZM45.1611 136.039C44.8502 136.094 44.5497 136.239 44.2591 136.474C43.9796 136.708 43.7576 137.041 43.5932 137.472C43.4399 137.902 43.3867 138.448 43.4342 139.107L46.4675 138.572C46.867 138.502 47.1132 138.372 47.2061 138.183C47.3099 137.992 47.3401 137.773 47.2967 137.527C47.2396 137.204 47.104 136.922 46.8902 136.684C46.6856 136.432 46.4299 136.247 46.123 136.129C45.8268 136.008 45.5055 135.978 45.1611 136.039ZM174.997 97.6648L179.64 96.8462L180.19 99.968L175.548 100.787L176.926 108.604C177.089 109.529 177.429 110.174 177.946 110.538C178.484 110.898 179.182 111.002 180.039 110.851C180.437 110.781 180.808 110.683 181.152 110.558C181.496 110.432 181.828 110.298 182.148 110.155L182.743 113.528C182.326 113.731 181.88 113.896 181.407 114.023C180.937 114.171 180.388 114.301 179.761 114.411C178.067 114.71 176.658 114.481 175.533 113.726C174.408 112.971 173.682 111.669 173.355 109.819L171.877 101.434L169.619 101.832L169.068 98.7102L171.326 98.3121L170.715 94.8441L174.258 93.4717L174.997 97.6648ZM280.846 96.2293L277.207 96.871L276.729 94.1579C276.598 94.6104 276.426 95.0321 276.208 95.4219C275.388 96.8883 274.11 97.7751 272.374 98.0811C271.099 98.3061 269.908 98.1582 268.803 97.638C267.697 97.1177 266.747 96.256 265.953 95.0525C265.179 93.8453 264.633 92.3375 264.315 90.53C263.992 88.7018 263.99 87.0987 264.307 85.7209C264.642 84.3182 265.24 83.1827 266.101 82.3158C266.961 81.4489 268.03 80.9037 269.306 80.6787C271.042 80.3726 272.546 80.7677 273.818 81.8654C274.156 82.1571 274.462 82.4945 274.739 82.875L273.233 74.33L276.872 73.6884L280.846 96.2293ZM161.362 99.711C162.847 99.4492 164.216 99.5656 165.468 100.06C166.719 100.555 167.774 101.398 168.631 102.59C169.509 103.779 170.107 105.278 170.426 107.085L170.52 107.621C170.55 107.789 170.576 108.001 170.6 108.257L159.204 110.267C159.551 111.513 160.06 112.431 160.733 113.02C161.617 113.752 162.697 114.006 163.973 113.781C164.81 113.633 165.498 113.317 166.038 112.832C166.578 112.347 166.938 111.644 167.121 110.723L170.778 111.281C170.528 112.799 169.848 114.079 168.738 115.119C167.645 116.136 166.219 116.798 164.463 117.108C162.915 117.381 161.492 117.264 160.195 116.756C158.919 116.244 157.842 115.393 156.964 114.205C156.082 112.995 155.487 111.518 155.18 109.773C154.861 107.966 154.911 106.353 155.329 104.936C155.769 103.515 156.503 102.356 157.531 101.46C158.579 100.56 159.857 99.9766 161.362 99.711ZM204.838 92.0451C206.323 91.7833 207.692 91.8997 208.944 92.3941C210.195 92.8886 211.25 93.7319 212.107 94.9243C212.985 96.1131 213.583 97.6116 213.902 99.4192L213.996 99.9548C214.026 100.123 214.052 100.335 214.076 100.591L202.68 102.601C203.027 103.847 203.536 104.765 204.209 105.354C205.093 106.086 206.173 106.34 207.449 106.115C208.285 105.968 208.974 105.651 209.514 105.166C210.053 104.681 210.414 103.978 210.597 103.057L214.254 103.615C214.004 105.133 213.324 106.413 212.214 107.453C211.121 108.47 209.695 109.132 207.938 109.442C206.391 109.715 204.968 109.598 203.671 109.09C202.395 108.578 201.318 107.728 200.439 106.539C199.558 105.329 198.963 103.852 198.656 102.107C198.337 100.3 198.387 98.6871 198.805 97.2697C199.245 95.8487 199.978 94.69 201.006 93.7937C202.055 92.8936 203.332 92.3106 204.838 92.0451ZM248.07 84.4222C249.554 84.1605 250.923 84.277 252.174 84.7714C253.426 85.2658 254.48 86.1092 255.337 87.3016C256.215 88.4904 256.814 89.9889 257.132 91.7964L257.227 92.3321C257.256 92.5003 257.284 92.7125 257.307 92.9684L245.911 94.9779C246.258 96.225 246.767 97.1425 247.44 97.7307C248.324 98.4634 249.404 98.7173 250.679 98.4923C251.516 98.3448 252.204 98.0285 252.744 97.5432C253.284 97.0579 253.645 96.3549 253.828 95.4343L257.485 95.9924C257.235 97.5101 256.555 98.7898 255.444 99.8308C254.351 100.847 252.926 101.509 251.169 101.819C249.622 102.092 248.199 101.975 246.902 101.467C245.626 100.955 244.548 100.105 243.67 98.9161C242.788 97.7064 242.194 96.2291 241.886 94.4848C241.567 92.6773 241.617 91.0644 242.036 89.647C242.475 88.226 243.209 87.0673 244.237 86.1709C245.286 85.2709 246.564 84.6877 248.07 84.4222ZM156.801 118.102L152.754 118.815L149.921 113.464L141.303 114.984L140.52 120.973L136.567 121.67L140.041 98.6275L145.656 97.6373L156.801 118.102ZM185.232 98.6456C185.553 97.6349 186.063 96.8002 186.763 96.1425C187.559 95.3955 188.522 94.9232 189.651 94.724C190.78 94.5249 191.82 94.612 192.77 94.9862C193.72 95.3604 194.523 95.9989 195.178 96.9018C195.833 97.8048 196.279 98.9292 196.517 100.274L198.368 110.772L194.729 111.414L193.022 101.735C192.781 100.369 192.255 99.4006 191.442 98.8288C190.647 98.2322 189.758 98.0201 188.775 98.1934C187.792 98.3668 187.018 98.8721 186.454 99.7084C185.941 100.469 185.775 101.474 185.955 102.722L185.996 102.974L187.702 112.653L184.063 113.295L180.088 90.7539L183.728 90.1122L185.232 98.6456ZM229.249 81.6949C229.75 81.6064 230.195 81.5602 230.583 81.5568C230.991 81.5498 231.414 81.5627 231.851 81.5941L232.412 84.7774C232.084 84.7486 231.746 84.7326 231.401 84.7286C231.076 84.7209 230.725 84.7506 230.348 84.817C229.554 84.9571 228.982 85.264 228.635 85.737C228.308 86.2063 228.21 86.8089 228.339 87.5442L228.462 88.2376L238.657 86.4399L241.603 103.149L237.964 103.791L235.568 90.2024L229.012 91.3584L231.408 104.947L227.737 105.594L225.341 92.0057L223.541 92.3231L223.657 92.9858L222.246 93.2347C221.095 93.4375 220.228 93.904 219.646 94.6352C219.084 95.3372 218.926 96.3962 219.171 97.8117L220.761 106.824L217.121 107.466L214.175 90.7567L217.814 90.115L218.407 93.4734C218.678 92.2766 219.15 91.288 219.824 90.5083C220.598 89.6351 221.632 89.0838 222.929 88.8551L222.99 89.2023L224.791 88.8849L224.707 88.4117C224.37 86.4993 224.61 84.9834 225.426 83.8644C226.238 82.7242 227.513 82.001 229.249 81.6949ZM263.991 99.2013L260.352 99.843L256.377 77.3021L260.017 76.6604L263.991 99.2013ZM271.039 83.7208C269.868 83.9273 268.994 84.5367 268.418 85.5484C267.863 86.5565 267.75 87.9956 268.08 89.8661C268.41 91.7366 269.008 93.0504 269.874 93.8077C270.762 94.5614 271.791 94.8352 272.962 94.6287C274.134 94.4222 274.997 93.8147 275.552 92.8065C276.129 91.7947 276.252 90.3536 275.923 88.4832C275.593 86.6129 274.984 85.3009 274.096 84.5472C273.229 83.7899 272.21 83.5143 271.039 83.7208ZM141.783 111.324L148.189 110.194L143.17 100.716L141.783 111.324ZM161.913 102.833C160.721 103.043 159.836 103.653 159.26 104.665C158.859 105.373 158.694 106.334 158.759 107.55L166.309 106.219C165.961 105.034 165.493 104.174 164.902 103.639C164.081 102.895 163.084 102.626 161.913 102.833ZM205.389 95.1669C204.197 95.3771 203.312 95.9874 202.736 96.9991C202.335 97.7066 202.169 98.6683 202.235 99.8838L209.784 98.5526C209.437 97.3682 208.969 96.5079 208.378 95.9726C207.556 95.2288 206.56 94.9603 205.389 95.1669ZM248.62 87.544C247.428 87.7541 246.544 88.3647 245.967 89.3762C245.567 90.0838 245.4 91.0456 245.466 92.2611L253.016 90.9297C252.668 89.7452 252.199 88.8852 251.608 88.3498C250.787 87.6062 249.791 87.3376 248.62 87.544ZM235.698 80.2979C236.325 80.1873 236.885 80.3048 237.377 80.6513C237.887 80.9732 238.201 81.4707 238.32 82.1431C238.435 82.7946 238.308 83.3588 237.939 83.8356C237.591 84.3087 237.103 84.6007 236.476 84.7113C235.849 84.8219 235.28 84.7162 234.77 84.3943C234.282 84.0687 233.98 83.58 233.865 82.9286C233.746 82.2562 233.861 81.6831 234.209 81.2101C234.574 80.7123 235.07 80.4086 235.698 80.2979ZM186.47 52.2452C187.048 52.1435 187.592 52.1804 188.104 52.3548C188.616 52.5293 189.054 52.8316 189.416 53.2628C189.777 53.6828 190.017 54.2337 190.137 54.9147C190.17 55.1044 190.19 55.285 190.198 55.4563C190.203 55.6166 190.199 55.7555 190.185 55.8731L184.868 56.8105C185.072 57.8338 185.466 58.5701 186.049 59.0199C186.633 59.4695 187.324 59.6241 188.124 59.483C188.657 59.389 189.083 59.2044 189.401 58.9296C189.717 58.6436 189.995 58.3012 190.234 57.9022L190.69 58.1501C190.483 58.7966 190.144 59.3455 189.674 59.7968C189.202 60.2369 188.588 60.5238 187.832 60.657C186.71 60.8548 185.747 60.6505 184.941 60.0443C184.133 59.4269 183.616 58.4762 183.39 57.1922C183.238 56.3325 183.278 55.5536 183.51 54.8565C183.754 54.1575 184.133 53.578 184.648 53.1189C185.174 52.658 185.781 52.3667 186.47 52.2452ZM210.543 43.804L210.895 46.1942L211.465 49.4266C211.795 48.8963 212.209 48.4438 212.704 48.0687C213.197 47.6825 213.711 47.442 214.244 47.348C214.966 47.2208 215.542 47.3724 215.973 47.8027C216.413 48.2201 216.73 48.9763 216.923 50.0705L217.428 52.9346C217.526 53.4238 217.617 53.8799 217.703 54.3021L218.911 54.3311L219.017 54.9331L215.151 55.6148L215.045 55.0128L216.223 54.58C216.159 54.1538 216.084 53.695 215.997 53.2038C215.92 52.6994 215.848 52.257 215.781 51.8774L215.53 50.454C215.395 49.684 215.195 49.1723 214.933 48.9191C214.671 48.6661 214.295 48.5825 213.806 48.6686C213.395 48.7411 213.021 48.8933 212.684 49.1253C212.347 49.3575 212.001 49.7065 211.648 50.1717L212.295 53.8398C212.392 54.329 212.485 54.7849 212.57 55.2072L213.762 55.239L213.868 55.8411L210.001 56.5229L209.939 56.1719C209.578 56.6267 209.055 56.9149 208.37 57.0356C207.792 57.1375 207.304 57.0621 206.904 56.8102C206.505 56.5583 206.248 56.109 206.134 55.4615L206.025 54.8412C205.998 54.6272 205.956 54.3579 205.899 54.0343L205.202 50.0826L204.029 50.2895C204.002 50.8005 203.734 51.1011 203.225 51.1908C203.036 51.2241 202.853 51.2214 202.675 51.1838C202.494 51.135 202.314 51.0573 202.135 50.9508L201.902 50.8023C201.612 51.1066 201.388 51.457 201.229 51.8532C201.07 52.2496 200.96 52.7008 200.9 53.2062L201.349 55.7519C201.447 56.2412 201.539 56.698 201.625 57.1203L203.036 57.1303L203.142 57.7333L199.092 58.4474L198.998 57.9146C198.871 58.1783 198.719 58.3832 198.54 58.5269C198.329 58.6908 198.079 58.7987 197.79 58.8496C197.39 58.9202 197.036 58.8615 196.728 58.674C196.42 58.4866 196.198 58.2034 196.062 57.8245C195.686 58.3513 195.345 58.757 195.04 59.041C194.735 59.325 194.338 59.5099 193.849 59.5961C193.238 59.7038 192.68 59.6236 192.174 59.3559C191.678 59.075 191.369 58.5885 191.247 57.8962C191.19 57.5725 191.209 57.2585 191.304 56.954C191.41 56.6474 191.64 56.3242 191.993 55.9857C192.345 55.6473 192.871 55.279 193.568 54.8799C193.807 54.7456 194.085 54.5988 194.4 54.4396C194.716 54.2803 195.034 54.1318 195.353 53.9949L195.279 53.5756C195.136 52.7609 194.918 52.2407 194.627 52.0158C194.335 51.791 193.911 51.7276 193.355 51.8255C193.233 51.847 193.095 51.8777 192.942 51.9162C192.8 51.9528 192.643 52.0092 192.473 52.0852L192.349 53.2296C192.288 53.7928 192.046 54.1119 191.624 54.1864C191.157 54.2687 190.855 54.0857 190.719 53.638C190.762 52.9741 191.04 52.4063 191.553 51.936C192.075 51.4527 192.758 51.1365 193.602 50.9876C194.48 50.8329 195.17 50.9419 195.671 51.3141C196.17 51.6751 196.512 52.3858 196.699 53.4462L197.328 57.0142C197.391 57.3714 197.493 57.6183 197.632 57.755C197.768 57.8804 197.925 57.9273 198.103 57.8961C198.247 57.8706 198.363 57.8159 198.452 57.7314C198.54 57.6468 198.619 57.5404 198.688 57.4131L199.087 57.7226C199.073 57.7577 199.055 57.7907 199.04 57.824L200.147 57.4147C200.083 56.9885 200.009 56.5294 199.922 56.0383C199.845 55.5342 199.772 55.0924 199.705 54.713L199.563 53.909C199.483 53.4512 199.41 53.0717 199.346 52.7722C199.293 52.4709 199.225 52.155 199.144 51.8241L197.801 51.9053L197.698 51.3196L199.851 49.8859L200.13 50.0091L200.662 51.9531C200.822 51.2344 201.085 50.6466 201.451 50.1907C201.829 49.7329 202.24 49.4647 202.684 49.3863C202.939 49.3413 203.188 49.3549 203.43 49.4273C203.549 49.4629 203.654 49.5112 203.747 49.5708L205.14 49.1436L205.177 46.8226L206.177 46.6463L206.479 48.9423L208.729 48.5454L208.886 49.4331L206.619 49.8328L207.534 55.0242C207.609 55.4484 207.748 55.7462 207.95 55.9178C208.15 56.0782 208.389 56.1339 208.667 56.085C208.855 56.0516 209.027 55.982 209.18 55.8745C209.344 55.765 209.518 55.6184 209.703 55.4361L210.18 55.8012C210.178 55.8065 210.174 55.8114 210.171 55.8167L211.104 55.4658C211.04 55.0396 210.965 54.5807 210.878 54.0896C210.801 53.5852 210.73 53.148 210.665 52.7795L209.368 45.4271L207.972 45.5008L207.869 44.9151L210.286 43.7115L210.543 43.804ZM195.462 54.6143C195.187 54.7434 194.92 54.883 194.66 55.0325C194.398 55.1708 194.183 55.2894 194.017 55.3877C193.573 55.6617 193.252 55.9194 193.054 56.1615C192.856 56.4035 192.735 56.6269 192.691 56.8304C192.658 57.0318 192.656 57.2163 192.685 57.3837C192.764 57.8303 192.948 58.1263 193.238 58.271C193.526 58.4156 193.86 58.4547 194.238 58.3881C194.404 58.3588 194.556 58.3086 194.692 58.2386C194.84 58.1665 195.009 58.0505 195.198 57.8906C195.386 57.7194 195.624 57.4816 195.914 57.1773L195.462 54.6143ZM186.506 53.0332C186.195 53.0881 185.894 53.2337 185.603 53.4691C185.324 53.7025 185.102 54.0352 184.937 54.4671C184.784 54.897 184.731 55.4422 184.778 56.1015L187.811 55.5667C188.211 55.4962 188.457 55.3657 188.55 55.1767C188.654 54.9857 188.684 54.7677 188.641 54.5221C188.584 54.1983 188.448 53.917 188.234 53.6785C188.029 53.427 187.774 53.2421 187.467 53.1236C187.171 53.0032 186.85 52.9726 186.506 53.0332Z" fill="#2683EB"/>
</svg>
